solid Hruska Ear Bar v1 12-21-2015
facet normal 0.0 0.0 -1.0
  outer loop
    vertex 2.8665901102850366 2.5358771659566433 2.8199664825478975e-15
    vertex -3.133409889714963 -3.464122834043358 2.8199664825478975e-15
    vertex -3.133409889714963 2.5358771659566433 2.8199664825478975e-15
  endloop
endfacet
facet normal 0.0 0.0 -1.0
  outer loop
    vertex -3.133409889714963 -3.464122834043358 2.8199664825478975e-15
    vertex 2.8665901102850366 2.5358771659566433 2.8199664825478975e-15
    vertex 2.8665901102850366 -3.464122834043358 2.8199664825478975e-15
  endloop
endfacet
facet normal 1.0 0.0 0.0
  outer loop
    vertex 2.8665901102850366 2.5358771659566433 2.8199664825478975e-15
    vertex 2.8665901102850366 -3.464122834043358 65.0
    vertex 2.8665901102850366 -3.464122834043358 2.8199664825478975e-15
  endloop
endfacet
facet normal 1.0 0.0 0.0
  outer loop
    vertex 2.8665901102850366 -3.464122834043358 65.0
    vertex 2.8665901102850366 2.5358771659566433 2.8199664825478975e-15
    vertex 2.8665901102850366 2.5358771659566433 65.0
  endloop
endfacet
facet normal 0.0 1.0 0.0
  outer loop
    vertex -3.133409889714963 2.5358771659566433 65.0
    vertex 2.8665901102850366 2.5358771659566433 2.8199664825478975e-15
    vertex -3.133409889714963 2.5358771659566433 2.8199664825478975e-15
  endloop
endfacet
facet normal 0.0 1.0 0.0
  outer loop
    vertex 2.8665901102850366 2.5358771659566433 2.8199664825478975e-15
    vertex -3.133409889714963 2.5358771659566433 65.0
    vertex 2.8665901102850366 2.5358771659566433 65.0
  endloop
endfacet
facet normal -1.0 0.0 0.0
  outer loop
    vertex -3.133409889714963 2.5358771659566433 65.0
    vertex -3.133409889714963 -3.464122834043358 2.8199664825478975e-15
    vertex -3.133409889714963 -3.464122834043358 65.0
  endloop
endfacet
facet normal -1.0 0.0 0.0
  outer loop
    vertex -3.133409889714963 -3.464122834043358 2.8199664825478975e-15
    vertex -3.133409889714963 2.5358771659566433 65.0
    vertex -3.133409889714963 2.5358771659566433 2.8199664825478975e-15
  endloop
endfacet
facet normal 0.0 -1.0 0.0
  outer loop
    vertex 2.8665901102850366 -3.464122834043358 65.0
    vertex -3.133409889714963 -3.464122834043358 2.8199664825478975e-15
    vertex 2.8665901102850366 -3.464122834043358 2.8199664825478975e-15
  endloop
endfacet
facet normal 0.0 -1.0 0.0
  outer loop
    vertex -3.133409889714963 -3.464122834043358 2.8199664825478975e-15
    vertex 2.8665901102850366 -3.464122834043358 65.0
    vertex -3.133409889714963 -3.464122834043358 65.0
  endloop
endfacet
facet normal 0.0 0.0 1.0
  outer loop
    vertex -3.133409889714963 -3.464122834043358 65.0
    vertex -3.060283601806276 -0.8327829396539606 65.0
    vertex -3.133409889714963 2.5358771659566433 65.0
  endloop
endfacet
facet normal 0.0 0.0 1.0
  outer loop
    vertex -3.060283601806276 -0.8327829396539606 65.0
    vertex -3.133409889714963 -3.464122834043358 65.0
    vertex -2.8651365420089863 -1.5777518104742374 65.0
  endloop
endfacet
facet normal 0.0 0.0 1.0
  outer loop
    vertex -2.8651365420089863 -1.5777518104742374 65.0
    vertex -3.133409889714963 -3.464122834043358 65.0
    vertex -2.4838268252496003 -2.2468287069096493 65.0
  endloop
endfacet
facet normal 0.0 0.0 1.0
  outer loop
    vertex -2.4838268252496003 -2.2468287069096493 65.0
    vertex -3.133409889714963 -3.464122834043358 65.0
    vertex -1.9423400785811678 -2.794417144169973 65.0
  endloop
endfacet
facet normal 0.0 0.0 1.0
  outer loop
    vertex -1.9423400785811678 -2.794417144169973 65.0
    vertex -3.133409889714963 -3.464122834043358 65.0
    vertex -1.277577728939984 -3.1831998751885964 65.0
  endloop
endfacet
facet normal 0.0 0.0 1.0
  outer loop
    vertex -1.277577728939984 -3.1831998751885964 65.0
    vertex -3.133409889714963 -3.464122834043358 65.0
    vertex -0.5348422318823717 -3.3866819993404413 65.0
  endloop
endfacet
facet normal 0.0 0.0 1.0
  outer loop
    vertex -0.5348422318823717 -3.3866819993404413 65.0
    vertex -3.133409889714963 -3.464122834043358 65.0
    vertex 2.8665901102850366 -3.464122834043358 65.0
  endloop
endfacet
facet normal 0.0 0.0 1.0
  outer loop
    vertex -0.5348422318823717 -3.3866819993404413 65.0
    vertex 2.8665901102850366 -3.464122834043358 65.0
    vertex 0.23525021589563905 -3.3909965461346694 65.0
  endloop
endfacet
facet normal 0.0 0.0 1.0
  outer loop
    vertex 0.23525021589563905 -3.3909965461346694 65.0
    vertex 2.8665901102850366 -3.464122834043358 65.0
    vertex 0.9802190867159171 -3.195849486337381 65.0
  endloop
endfacet
facet normal 0.0 0.0 1.0
  outer loop
    vertex 0.9802190867159171 -3.195849486337381 65.0
    vertex 2.8665901102850366 -3.464122834043358 65.0
    vertex 1.6492959831513285 -2.8145397695779946 65.0
  endloop
endfacet
facet normal 0.0 0.0 1.0
  outer loop
    vertex 1.6492959831513285 -2.8145397695779946 65.0
    vertex 2.8665901102850366 -3.464122834043358 65.0
    vertex 2.1968844204116524 -2.2730530229095622 65.0
  endloop
endfacet
facet normal 0.0 0.0 1.0
  outer loop
    vertex 2.1968844204116524 -2.2730530229095622 65.0
    vertex 2.8665901102850366 -3.464122834043358 65.0
    vertex 2.585667151430276 -1.608290673268379 65.0
  endloop
endfacet
facet normal 0.0 0.0 1.0
  outer loop
    vertex 2.585667151430276 -1.608290673268379 65.0
    vertex 2.8665901102850366 -3.464122834043358 65.0
    vertex 2.7891492755821217 -0.8655551762107664 65.0
  endloop
endfacet
facet normal 0.0 0.0 1.0
  outer loop
    vertex 2.7891492755821217 -0.8655551762107664 65.0
    vertex 2.8665901102850366 -3.464122834043358 65.0
    vertex 2.7934638223763506 -0.09546272843275598 65.0
  endloop
endfacet
facet normal 0.0 0.0 1.0
  outer loop
    vertex -3.133409889714963 2.5358771659566433 65.0
    vertex -0.5020699953255666 2.462750878047955 65.0
    vertex 2.8665901102850366 2.5358771659566433 65.0
  endloop
endfacet
facet normal 0.0 0.0 1.0
  outer loop
    vertex -0.5020699953255666 2.462750878047955 65.0
    vertex -3.133409889714963 2.5358771659566433 65.0
    vertex -1.2470388661458436 2.267603818250666 65.0
  endloop
endfacet
facet normal 0.0 0.0 1.0
  outer loop
    vertex -1.2470388661458436 2.267603818250666 65.0
    vertex -3.133409889714963 2.5358771659566433 65.0
    vertex -1.916115762581255 1.886294101491279 65.0
  endloop
endfacet
facet normal 0.0 0.0 1.0
  outer loop
    vertex -1.916115762581255 1.886294101491279 65.0
    vertex -3.133409889714963 2.5358771659566433 65.0
    vertex -2.4637041998415796 1.3448073548228456 65.0
  endloop
endfacet
facet normal 0.0 0.0 1.0
  outer loop
    vertex -2.4637041998415796 1.3448073548228456 65.0
    vertex -3.133409889714963 2.5358771659566433 65.0
    vertex -2.8524869308602026 0.6800450051816628 65.0
  endloop
endfacet
facet normal 0.0 0.0 1.0
  outer loop
    vertex -2.8524869308602026 0.6800450051816628 65.0
    vertex -3.133409889714963 2.5358771659566433 65.0
    vertex -3.055969055012048 -0.06269049187594912 65.0
  endloop
endfacet
facet normal 0.0 0.0 1.0
  outer loop
    vertex -3.055969055012048 -0.06269049187594912 65.0
    vertex -3.133409889714963 2.5358771659566433 65.0
    vertex -3.060283601806276 -0.8327829396539606 65.0
  endloop
endfacet
facet normal 0.0 0.0 1.0
  outer loop
    vertex 2.8665901102850366 2.5358771659566433 65.0
    vertex -0.5020699953255666 2.462750878047955 65.0
    vertex 0.26802245245244594 2.4584363312537265 65.0
  endloop
endfacet
facet normal 0.0 0.0 1.0
  outer loop
    vertex 2.8665901102850366 2.5358771659566433 65.0
    vertex 0.26802245245244594 2.4584363312537265 65.0
    vertex 1.0107579495100592 2.2549542071018807 65.0
  endloop
endfacet
facet normal 0.0 0.0 1.0
  outer loop
    vertex 2.8665901102850366 2.5358771659566433 65.0
    vertex 1.0107579495100592 2.2549542071018807 65.0
    vertex 1.675520299151242 1.8661714760832582 65.0
  endloop
endfacet
facet normal 0.0 0.0 1.0
  outer loop
    vertex 2.8665901102850366 2.5358771659566433 65.0
    vertex 1.675520299151242 1.8661714760832582 65.0
    vertex 2.217007045819675 1.3185830388229336 65.0
  endloop
endfacet
facet normal 0.0 0.0 1.0
  outer loop
    vertex 2.8665901102850366 2.5358771659566433 65.0
    vertex 2.217007045819675 1.3185830388229336 65.0
    vertex 2.598316762579061 0.6495061423875214 65.0
  endloop
endfacet
facet normal 0.0 0.0 1.0
  outer loop
    vertex 2.8665901102850366 2.5358771659566433 65.0
    vertex 2.598316762579061 0.6495061423875214 65.0
    vertex 2.7934638223763506 -0.09546272843275598 65.0
  endloop
endfacet
facet normal 0.0 0.0 1.0
  outer loop
    vertex 2.8665901102850366 2.5358771659566433 65.0
    vertex 2.7934638223763506 -0.09546272843275598 65.0
    vertex 2.8665901102850366 -3.464122834043358 65.0
  endloop
endfacet
facet normal 0.26422662786954904 0.964460620826318 0.0
  outer loop
    vertex 0.0621429849828315 0.9595662567820671 77.0
    vertex 0.4239575333710237 0.8604424190945852 68.0
    vertex 0.0621429849828315 0.9595662567820671 68.0
  endloop
endfacet
facet normal 0.26422662786954904 0.964460620826318 0.0
  outer loop
    vertex 0.4239575333710237 0.8604424190945852 68.0
    vertex 0.0621429849828315 0.9595662567820671 77.0
    vertex 0.4239575333710237 0.8604424190945852 77.0
  endloop
endfacet
facet normal 0.5048441007737204 0.8632105385790731 0.0
  outer loop
    vertex 0.4239575333710237 0.8604424190945852 77.0
    vertex 0.7477884129691178 0.6710516483533322 68.0
    vertex 0.4239575333710237 0.8604424190945852 68.0
  endloop
endfacet
facet normal 0.5048441007737204 0.8632105385790731 0.0
  outer loop
    vertex 0.7477884129691178 0.6710516483533322 68.0
    vertex 0.4239575333710237 0.8604424190945852 77.0
    vertex 0.7477884129691178 0.6710516483533322 77.0
  endloop
endfacet
facet normal 0.7110572825044872 0.7031340846505266 0.0
  outer loop
    vertex 0.7477884129691178 0.6710516483533322 68.0
    vertex 1.0115670844883409 0.4043006126012752 77.0
    vertex 1.0115670844883409 0.4043006126012752 68.0
  endloop
endfacet
facet normal 0.7110572825044872 0.7031340846505266 0.0
  outer loop
    vertex 1.0115670844883409 0.4043006126012752 77.0
    vertex 0.7477884129691178 0.6710516483533322 68.0
    vertex 0.7477884129691178 0.6710516483533322 77.0
  endloop
endfacet
facet normal 0.8688130855102899 0.4951402048370641 0.0
  outer loop
    vertex 1.0115670844883409 0.4043006126012752 68.0
    vertex 1.1973174673795257 0.07836795409798515 77.0
    vertex 1.1973174673795257 0.07836795409798515 68.0
  endloop
endfacet
facet normal 0.8688130855102899 0.4951402048370641 0.0
  outer loop
    vertex 1.1973174673795257 0.07836795409798515 77.0
    vertex 1.0115670844883409 0.4043006126012752 68.0
    vertex 1.0115670844883409 0.4043006126012752 77.0
  endloop
endfacet
facet normal 0.9673607125200775 0.2534033383218302 0.0
  outer loop
    vertex 1.1973174673795257 0.07836795409798515 68.0
    vertex 1.2923809800156552 -0.2845345551087178 77.0
    vertex 1.2923809800156552 -0.2845345551087178 68.0
  endloop
endfacet
facet normal 0.9673607125200775 0.2534033383218302 0.0
  outer loop
    vertex 1.2923809800156552 -0.2845345551087178 77.0
    vertex 1.1973174673795257 0.07836795409798515 68.0
    vertex 1.1973174673795257 0.07836795409798515 77.0
  endloop
endfacet
facet normal 0.9999843056107848 -0.0056025469312169585 0.0
  outer loop
    vertex 1.2923809800156552 -0.2845345551087178 68.0
    vertex 1.290279201110462 -0.6596757087411569 77.0
    vertex 1.290279201110462 -0.6596757087411569 68.0
  endloop
endfacet
facet normal 0.9999843056107848 -0.0056025469312169585 0.0
  outer loop
    vertex 1.290279201110462 -0.6596757087411569 77.0
    vertex 1.2923809800156552 -0.2845345551087178 68.0
    vertex 1.2923809800156552 -0.2845345551087178 77.0
  endloop
endfacet
facet normal 0.9644606208263176 -0.26422662786955103 0.0
  outer loop
    vertex 1.290279201110462 -0.6596757087411569 68.0
    vertex 1.191155363422981 -1.0214902571293427 77.0
    vertex 1.191155363422981 -1.0214902571293427 68.0
  endloop
endfacet
facet normal 0.9644606208263176 -0.26422662786955103 0.0
  outer loop
    vertex 1.191155363422981 -1.0214902571293427 77.0
    vertex 1.290279201110462 -0.6596757087411569 68.0
    vertex 1.290279201110462 -0.6596757087411569 77.0
  endloop
endfacet
facet normal 0.8632105385790727 -0.5048441007737215 0.0
  outer loop
    vertex 1.191155363422981 -1.0214902571293427 68.0
    vertex 1.0017645926817278 -1.345321136727437 77.0
    vertex 1.0017645926817278 -1.345321136727437 68.0
  endloop
endfacet
facet normal 0.8632105385790727 -0.5048441007737215 0.0
  outer loop
    vertex 1.0017645926817278 -1.345321136727437 77.0
    vertex 1.191155363422981 -1.0214902571293427 68.0
    vertex 1.191155363422981 -1.0214902571293427 77.0
  endloop
endfacet
facet normal 0.7031340846505271 -0.7110572825044867 0.0
  outer loop
    vertex 1.0017645926817278 -1.345321136727437 77.0
    vertex 0.735013556929671 -1.60909980824666 68.0
    vertex 1.0017645926817278 -1.345321136727437 68.0
  endloop
endfacet
facet normal 0.7031340846505271 -0.7110572825044867 0.0
  outer loop
    vertex 0.735013556929671 -1.60909980824666 68.0
    vertex 1.0017645926817278 -1.345321136727437 77.0
    vertex 0.735013556929671 -1.60909980824666 77.0
  endloop
endfacet
facet normal 0.49514020483706545 -0.8688130855102891 0.0
  outer loop
    vertex 0.735013556929671 -1.60909980824666 77.0
    vertex 0.409080898426383 -1.7948501911378443 68.0
    vertex 0.735013556929671 -1.60909980824666 68.0
  endloop
endfacet
facet normal 0.49514020483706545 -0.8688130855102891 0.0
  outer loop
    vertex 0.409080898426383 -1.7948501911378443 68.0
    vertex 0.735013556929671 -1.60909980824666 77.0
    vertex 0.409080898426383 -1.7948501911378443 77.0
  endloop
endfacet
facet normal 0.25340333832183226 -0.967360712520077 0.0
  outer loop
    vertex 0.409080898426383 -1.7948501911378443 77.0
    vertex 0.046178389219678685 -1.8899137037739744 68.0
    vertex 0.409080898426383 -1.7948501911378443 68.0
  endloop
endfacet
facet normal 0.25340333832183226 -0.967360712520077 0.0
  outer loop
    vertex 0.046178389219678685 -1.8899137037739744 68.0
    vertex 0.409080898426383 -1.7948501911378443 77.0
    vertex 0.046178389219678685 -1.8899137037739744 77.0
  endloop
endfacet
facet normal -0.00560254693121604 -0.999984305610785 0.0
  outer loop
    vertex 0.046178389219678685 -1.8899137037739744 77.0
    vertex -0.32896276441275907 -1.887811924868782 68.0
    vertex 0.046178389219678685 -1.8899137037739744 68.0
  endloop
endfacet
facet normal -0.00560254693121604 -0.999984305610785 0.0
  outer loop
    vertex -0.32896276441275907 -1.887811924868782 68.0
    vertex 0.046178389219678685 -1.8899137037739744 77.0
    vertex -0.32896276441275907 -1.887811924868782 77.0
  endloop
endfacet
facet normal -0.2642266278695487 -0.9644606208263182 0.0
  outer loop
    vertex -0.32896276441275907 -1.887811924868782 77.0
    vertex -0.6907773128009477 -1.7886880871813013 68.0
    vertex -0.32896276441275907 -1.887811924868782 68.0
  endloop
endfacet
facet normal -0.2642266278695487 -0.9644606208263182 0.0
  outer loop
    vertex -0.6907773128009477 -1.7886880871813013 68.0
    vertex -0.32896276441275907 -1.887811924868782 77.0
    vertex -0.6907773128009477 -1.7886880871813013 77.0
  endloop
endfacet
facet normal -0.5048441007737204 -0.8632105385790731 0.0
  outer loop
    vertex -0.6907773128009477 -1.7886880871813013 77.0
    vertex -1.0146081923990407 -1.599297316440049 68.0
    vertex -0.6907773128009477 -1.7886880871813013 68.0
  endloop
endfacet
facet normal -0.5048441007737204 -0.8632105385790731 0.0
  outer loop
    vertex -1.0146081923990407 -1.599297316440049 68.0
    vertex -0.6907773128009477 -1.7886880871813013 77.0
    vertex -1.0146081923990407 -1.599297316440049 77.0
  endloop
endfacet
facet normal -0.7110572825044851 -0.7031340846505287 0.0
  outer loop
    vertex -1.2783868639182678 -1.3325462806879895 77.0
    vertex -1.0146081923990407 -1.599297316440049 68.0
    vertex -1.0146081923990407 -1.599297316440049 77.0
  endloop
endfacet
facet normal -0.7110572825044851 -0.7031340846505287 0.0
  outer loop
    vertex -1.0146081923990407 -1.599297316440049 68.0
    vertex -1.2783868639182678 -1.3325462806879895 77.0
    vertex -1.2783868639182678 -1.3325462806879895 68.0
  endloop
endfacet
facet normal -0.8688130855102905 -0.4951402048370632 0.0
  outer loop
    vertex -1.46413724680945 -1.006613622184703 77.0
    vertex -1.2783868639182678 -1.3325462806879895 68.0
    vertex -1.2783868639182678 -1.3325462806879895 77.0
  endloop
endfacet
facet normal -0.8688130855102905 -0.4951402048370632 0.0
  outer loop
    vertex -1.2783868639182678 -1.3325462806879895 68.0
    vertex -1.46413724680945 -1.006613622184703 77.0
    vertex -1.46413724680945 -1.006613622184703 68.0
  endloop
endfacet
facet normal -0.9673607125200766 -0.2534033383218335 0.0
  outer loop
    vertex -1.5592007594455806 -0.6437111129779991 77.0
    vertex -1.46413724680945 -1.006613622184703 68.0
    vertex -1.46413724680945 -1.006613622184703 77.0
  endloop
endfacet
facet normal -0.9673607125200766 -0.2534033383218335 0.0
  outer loop
    vertex -1.46413724680945 -1.006613622184703 68.0
    vertex -1.5592007594455806 -0.6437111129779991 77.0
    vertex -1.5592007594455806 -0.6437111129779991 68.0
  endloop
endfacet
facet normal -0.999984305610785 0.005602546931215581 0.0
  outer loop
    vertex -1.5570989805403883 -0.2685699593455621 77.0
    vertex -1.5592007594455806 -0.6437111129779991 68.0
    vertex -1.5592007594455806 -0.6437111129779991 77.0
  endloop
endfacet
facet normal -0.999984305610785 0.005602546931215581 0.0
  outer loop
    vertex -1.5592007594455806 -0.6437111129779991 68.0
    vertex -1.5570989805403883 -0.2685699593455621 77.0
    vertex -1.5570989805403883 -0.2685699593455621 68.0
  endloop
endfacet
facet normal -0.9644606208263182 0.2642266278695487 0.0
  outer loop
    vertex -1.4579751428529077 0.09324458904262657 77.0
    vertex -1.5570989805403883 -0.2685699593455621 68.0
    vertex -1.5570989805403883 -0.2685699593455621 77.0
  endloop
endfacet
facet normal -0.9644606208263182 0.2642266278695487 0.0
  outer loop
    vertex -1.5570989805403883 -0.2685699593455621 68.0
    vertex -1.4579751428529077 0.09324458904262657 77.0
    vertex -1.4579751428529077 0.09324458904262657 68.0
  endloop
endfacet
facet normal -0.8632105385790735 0.5048441007737201 0.0
  outer loop
    vertex -1.268584372111656 0.41707546864071854 77.0
    vertex -1.4579751428529077 0.09324458904262657 68.0
    vertex -1.4579751428529077 0.09324458904262657 77.0
  endloop
endfacet
facet normal -0.8632105385790735 0.5048441007737201 0.0
  outer loop
    vertex -1.4579751428529077 0.09324458904262657 68.0
    vertex -1.268584372111656 0.41707546864071854 77.0
    vertex -1.268584372111656 0.41707546864071854 68.0
  endloop
endfacet
facet normal -0.703134084650528 0.711057282504486 0.0
  outer loop
    vertex -1.268584372111656 0.41707546864071854 77.0
    vertex -1.0018333363595957 0.6808541401599459 68.0
    vertex -1.268584372111656 0.41707546864071854 68.0
  endloop
endfacet
facet normal -0.703134084650528 0.711057282504486 0.0
  outer loop
    vertex -1.0018333363595957 0.6808541401599459 68.0
    vertex -1.268584372111656 0.41707546864071854 77.0
    vertex -1.0018333363595957 0.6808541401599459 77.0
  endloop
endfacet
facet normal -0.49514020483706567 0.8688130855102889 0.0
  outer loop
    vertex -1.0018333363595957 0.6808541401599459 77.0
    vertex -0.6759006778563109 0.8666045230511285 68.0
    vertex -1.0018333363595957 0.6808541401599459 68.0
  endloop
endfacet
facet normal -0.49514020483706567 0.8688130855102889 0.0
  outer loop
    vertex -0.6759006778563109 0.8666045230511285 68.0
    vertex -1.0018333363595957 0.6808541401599459 77.0
    vertex -0.6759006778563109 0.8666045230511285 77.0
  endloop
endfacet
facet normal -0.2534033383218336 0.9673607125200766 0.0
  outer loop
    vertex -0.6759006778563109 0.8666045230511285 77.0
    vertex -0.3129981686496059 0.9616680356872594 68.0
    vertex -0.6759006778563109 0.8666045230511285 68.0
  endloop
endfacet
facet normal -0.2534033383218336 0.9673607125200766 0.0
  outer loop
    vertex -0.3129981686496059 0.9616680356872594 68.0
    vertex -0.6759006778563109 0.8666045230511285 77.0
    vertex -0.3129981686496059 0.9616680356872594 77.0
  endloop
endfacet
facet normal 0.005602546931216052 0.999984305610785 0.0
  outer loop
    vertex -0.3129981686496059 0.9616680356872594 77.0
    vertex 0.0621429849828315 0.9595662567820671 68.0
    vertex -0.3129981686496059 0.9616680356872594 68.0
  endloop
endfacet
facet normal 0.005602546931216052 0.999984305610785 0.0
  outer loop
    vertex 0.0621429849828315 0.9595662567820671 68.0
    vertex -0.3129981686496059 0.9616680356872594 77.0
    vertex 0.0621429849828315 0.9595662567820671 77.0
  endloop
endfacet
facet normal 0.005011070314132843 0.8944131535114553 0.4472135954999587
  outer loop
    vertex -0.3129981686496059 0.9616680356872594 68.0
    vertex 0.26802245245244594 2.4584363312537265 65.0
    vertex -0.5020699953255666 2.462750878047955 65.0
  endloop
endfacet
facet normal 0.005011070314132843 0.8944131535114553 0.4472135954999587
  outer loop
    vertex 0.26802245245244594 2.4584363312537265 65.0
    vertex -0.3129981686496059 0.9616680356872594 68.0
    vertex 0.0621429849828315 0.9595662567820671 68.0
  endloop
endfacet
facet normal -0.2266508360851973 0.8652337247830094 0.44721359549995876
  outer loop
    vertex -0.6759006778563109 0.8666045230511285 68.0
    vertex -0.5020699953255666 2.462750878047955 65.0
    vertex -1.2470388661458436 2.267603818250666 65.0
  endloop
endfacet
facet normal -0.2266508360851973 0.8652337247830094 0.44721359549995876
  outer loop
    vertex -0.5020699953255666 2.462750878047955 65.0
    vertex -0.6759006778563109 0.8666045230511285 68.0
    vertex -0.3129981686496059 0.9616680356872594 68.0
  endloop
endfacet
facet normal -0.44286686256353847 0.7770900475769376 0.4472135954999587
  outer loop
    vertex -1.0018333363595957 0.6808541401599459 68.0
    vertex -1.2470388661458436 2.267603818250666 65.0
    vertex -1.916115762581255 1.886294101491279 65.0
  endloop
endfacet
facet normal -0.44286686256353847 0.7770900475769376 0.4472135954999587
  outer loop
    vertex -1.2470388661458436 2.267603818250666 65.0
    vertex -1.0018333363595957 0.6808541401599459 68.0
    vertex -0.6759006778563109 0.8666045230511285 68.0
  endloop
endfacet
facet normal -0.6289022442302689 0.6359889678305203 0.4472135954999589
  outer loop
    vertex -1.268584372111656 0.41707546864071854 68.0
    vertex -1.916115762581255 1.886294101491279 65.0
    vertex -2.4637041998415796 1.3448073548228456 65.0
  endloop
endfacet
facet normal -0.6289022442302689 0.6359889678305203 0.4472135954999589
  outer loop
    vertex -1.916115762581255 1.886294101491279 65.0
    vertex -1.268584372111656 0.41707546864071854 68.0
    vertex -1.0018333363595957 0.6808541401599459 68.0
  endloop
endfacet
facet normal -0.7720789772628047 0.4515462909479171 0.44721359549995865
  outer loop
    vertex -1.268584372111656 0.41707546864071854 68.0
    vertex -2.8524869308602026 0.6800450051816628 65.0
    vertex -1.4579751428529077 0.09324458904262657 68.0
  endloop
endfacet
facet normal -0.7720789772628047 0.4515462909479171 0.44721359549995865
  outer loop
    vertex -2.8524869308602026 0.6800450051816628 65.0
    vertex -1.268584372111656 0.41707546864071854 68.0
    vertex -2.4637041998415796 1.3448073548228456 65.0
  endloop
endfacet
facet normal -0.8626398039157183 0.23633148055274078 0.44721359549995865
  outer loop
    vertex -1.4579751428529077 0.09324458904262657 68.0
    vertex -3.055969055012048 -0.06269049187594912 65.0
    vertex -1.5570989805403883 -0.2685699593455621 68.0
  endloop
endfacet
facet normal -0.8626398039157183 0.23633148055274078 0.44721359549995865
  outer loop
    vertex -3.055969055012048 -0.06269049187594912 65.0
    vertex -1.4579751428529077 0.09324458904262657 68.0
    vertex -2.8524869308602026 0.6800450051816628 65.0
  endloop
endfacet
facet normal -0.8944131535114553 0.005011070314132677 0.4472135954999587
  outer loop
    vertex -1.5592007594455806 -0.6437111129779991 68.0
    vertex -3.055969055012048 -0.06269049187594912 65.0
    vertex -3.060283601806276 -0.8327829396539606 65.0
  endloop
endfacet
facet normal -0.8944131535114553 0.005011070314132677 0.4472135954999587
  outer loop
    vertex -3.055969055012048 -0.06269049187594912 65.0
    vertex -1.5592007594455806 -0.6437111129779991 68.0
    vertex -1.5570989805403883 -0.2685699593455621 68.0
  endloop
endfacet
facet normal -0.8652337247830093 -0.22665083608519787 0.4472135954999587
  outer loop
    vertex -1.46413724680945 -1.006613622184703 68.0
    vertex -3.060283601806276 -0.8327829396539606 65.0
    vertex -2.8651365420089863 -1.5777518104742374 65.0
  endloop
endfacet
facet normal -0.8652337247830093 -0.22665083608519787 0.4472135954999587
  outer loop
    vertex -3.060283601806276 -0.8327829396539606 65.0
    vertex -1.46413724680945 -1.006613622184703 68.0
    vertex -1.5592007594455806 -0.6437111129779991 68.0
  endloop
endfacet
facet normal -0.7770900475769382 -0.4428668625635376 0.4472135954999587
  outer loop
    vertex -1.2783868639182678 -1.3325462806879895 68.0
    vertex -2.8651365420089863 -1.5777518104742374 65.0
    vertex -2.4838268252496003 -2.2468287069096493 65.0
  endloop
endfacet
facet normal -0.7770900475769382 -0.4428668625635376 0.4472135954999587
  outer loop
    vertex -2.8651365420089863 -1.5777518104742374 65.0
    vertex -1.2783868639182678 -1.3325462806879895 68.0
    vertex -1.46413724680945 -1.006613622184703 68.0
  endloop
endfacet
facet normal -0.6359889678305213 -0.6289022442302677 0.4472135954999588
  outer loop
    vertex -1.0146081923990407 -1.599297316440049 68.0
    vertex -2.4838268252496003 -2.2468287069096493 65.0
    vertex -1.9423400785811678 -2.794417144169973 65.0
  endloop
endfacet
facet normal -0.6359889678305213 -0.6289022442302677 0.4472135954999588
  outer loop
    vertex -2.4838268252496003 -2.2468287069096493 65.0
    vertex -1.0146081923990407 -1.599297316440049 68.0
    vertex -1.2783868639182678 -1.3325462806879895 68.0
  endloop
endfacet
facet normal -0.45154629094791676 -0.7720789772628048 0.44721359549995865
  outer loop
    vertex -0.6907773128009477 -1.7886880871813013 68.0
    vertex -1.9423400785811678 -2.794417144169973 65.0
    vertex -1.277577728939984 -3.1831998751885964 65.0
  endloop
endfacet
facet normal -0.45154629094791676 -0.7720789772628048 0.44721359549995865
  outer loop
    vertex -1.9423400785811678 -2.794417144169973 65.0
    vertex -0.6907773128009477 -1.7886880871813013 68.0
    vertex -1.0146081923990407 -1.599297316440049 68.0
  endloop
endfacet
facet normal -0.23633148055274103 -0.8626398039157182 0.4472135954999586
  outer loop
    vertex -0.32896276441275907 -1.887811924868782 68.0
    vertex -1.277577728939984 -3.1831998751885964 65.0
    vertex -0.5348422318823717 -3.3866819993404413 65.0
  endloop
endfacet
facet normal -0.23633148055274103 -0.8626398039157182 0.4472135954999586
  outer loop
    vertex -1.277577728939984 -3.1831998751885964 65.0
    vertex -0.32896276441275907 -1.887811924868782 68.0
    vertex -0.6907773128009477 -1.7886880871813013 68.0
  endloop
endfacet
facet normal -0.005011070314133243 -0.8944131535114553 0.4472135954999587
  outer loop
    vertex 0.046178389219678685 -1.8899137037739744 68.0
    vertex -0.5348422318823717 -3.3866819993404413 65.0
    vertex 0.23525021589563905 -3.3909965461346694 65.0
  endloop
endfacet
facet normal -0.005011070314133243 -0.8944131535114553 0.4472135954999587
  outer loop
    vertex -0.5348422318823717 -3.3866819993404413 65.0
    vertex 0.046178389219678685 -1.8899137037739744 68.0
    vertex -0.32896276441275907 -1.887811924868782 68.0
  endloop
endfacet
facet normal 0.22665083608519707 -0.8652337247830094 0.4472135954999586
  outer loop
    vertex 0.409080898426383 -1.7948501911378443 68.0
    vertex 0.23525021589563905 -3.3909965461346694 65.0
    vertex 0.9802190867159171 -3.195849486337381 65.0
  endloop
endfacet
facet normal 0.22665083608519707 -0.8652337247830094 0.4472135954999586
  outer loop
    vertex 0.23525021589563905 -3.3909965461346694 65.0
    vertex 0.409080898426383 -1.7948501911378443 68.0
    vertex 0.046178389219678685 -1.8899137037739744 68.0
  endloop
endfacet
facet normal 0.44286686256353847 -0.7770900475769378 0.4472135954999587
  outer loop
    vertex 0.735013556929671 -1.60909980824666 68.0
    vertex 0.9802190867159171 -3.195849486337381 65.0
    vertex 1.6492959831513285 -2.8145397695779946 65.0
  endloop
endfacet
facet normal 0.44286686256353847 -0.7770900475769378 0.4472135954999587
  outer loop
    vertex 0.9802190867159171 -3.195849486337381 65.0
    vertex 0.735013556929671 -1.60909980824666 68.0
    vertex 0.409080898426383 -1.7948501911378443 68.0
  endloop
endfacet
facet normal 0.6289022442302684 -0.635988967830521 0.44721359549995854
  outer loop
    vertex 1.0017645926817278 -1.345321136727437 68.0
    vertex 1.6492959831513285 -2.8145397695779946 65.0
    vertex 2.1968844204116524 -2.2730530229095622 65.0
  endloop
endfacet
facet normal 0.6289022442302684 -0.635988967830521 0.44721359549995854
  outer loop
    vertex 1.6492959831513285 -2.8145397695779946 65.0
    vertex 1.0017645926817278 -1.345321136727437 68.0
    vertex 0.735013556929671 -1.60909980824666 68.0
  endloop
endfacet
facet normal 0.7720789772628043 -0.4515462909479177 0.4472135954999586
  outer loop
    vertex 2.585667151430276 -1.608290673268379 65.0
    vertex 1.0017645926817278 -1.345321136727437 68.0
    vertex 2.1968844204116524 -2.2730530229095622 65.0
  endloop
endfacet
facet normal 0.7720789772628043 -0.4515462909479177 0.4472135954999586
  outer loop
    vertex 1.0017645926817278 -1.345321136727437 68.0
    vertex 2.585667151430276 -1.608290673268379 65.0
    vertex 1.191155363422981 -1.0214902571293427 68.0
  endloop
endfacet
facet normal 0.8626398039157182 -0.23633148055274136 0.44721359549995865
  outer loop
    vertex 2.7891492755821217 -0.8655551762107664 65.0
    vertex 1.191155363422981 -1.0214902571293427 68.0
    vertex 2.585667151430276 -1.608290673268379 65.0
  endloop
endfacet
facet normal 0.8626398039157182 -0.23633148055274136 0.44721359549995865
  outer loop
    vertex 1.191155363422981 -1.0214902571293427 68.0
    vertex 2.7891492755821217 -0.8655551762107664 65.0
    vertex 1.290279201110462 -0.6596757087411569 68.0
  endloop
endfacet
facet normal 0.8944131535114553 -0.0050110703141332796 0.4472135954999587
  outer loop
    vertex 2.7934638223763506 -0.09546272843275598 65.0
    vertex 1.290279201110462 -0.6596757087411569 68.0
    vertex 2.7891492755821217 -0.8655551762107664 65.0
  endloop
endfacet
facet normal 0.8944131535114553 -0.0050110703141332796 0.4472135954999587
  outer loop
    vertex 1.290279201110462 -0.6596757087411569 68.0
    vertex 2.7934638223763506 -0.09546272843275598 65.0
    vertex 1.2923809800156552 -0.2845345551087178 68.0
  endloop
endfacet
facet normal 0.8652337247830096 0.22665083608519682 0.4472135954999585
  outer loop
    vertex 2.7934638223763506 -0.09546272843275598 65.0
    vertex 1.1973174673795257 0.07836795409798515 68.0
    vertex 1.2923809800156552 -0.2845345551087178 68.0
  endloop
endfacet
facet normal 0.8652337247830096 0.22665083608519682 0.4472135954999585
  outer loop
    vertex 1.1973174673795257 0.07836795409798515 68.0
    vertex 2.7934638223763506 -0.09546272843275598 65.0
    vertex 2.598316762579061 0.6495061423875214 65.0
  endloop
endfacet
facet normal 0.7770900475769381 0.44286686256353774 0.44721359549995876
  outer loop
    vertex 2.598316762579061 0.6495061423875214 65.0
    vertex 1.0115670844883409 0.4043006126012752 68.0
    vertex 1.1973174673795257 0.07836795409798515 68.0
  endloop
endfacet
facet normal 0.7770900475769381 0.44286686256353774 0.44721359549995876
  outer loop
    vertex 1.0115670844883409 0.4043006126012752 68.0
    vertex 2.598316762579061 0.6495061423875214 65.0
    vertex 2.217007045819675 1.3185830388229336 65.0
  endloop
endfacet
facet normal 0.635988967830522 0.6289022442302673 0.4472135954999587
  outer loop
    vertex 2.217007045819675 1.3185830388229336 65.0
    vertex 0.7477884129691178 0.6710516483533322 68.0
    vertex 1.0115670844883409 0.4043006126012752 68.0
  endloop
endfacet
facet normal 0.635988967830522 0.6289022442302673 0.4472135954999587
  outer loop
    vertex 0.7477884129691178 0.6710516483533322 68.0
    vertex 2.217007045819675 1.3185830388229336 65.0
    vertex 1.675520299151242 1.8661714760832582 65.0
  endloop
endfacet
facet normal 0.45154629094791654 0.7720789772628048 0.4472135954999588
  outer loop
    vertex 0.4239575333710237 0.8604424190945852 68.0
    vertex 1.675520299151242 1.8661714760832582 65.0
    vertex 1.0107579495100592 2.2549542071018807 65.0
  endloop
endfacet
facet normal 0.45154629094791654 0.7720789772628048 0.4472135954999588
  outer loop
    vertex 1.675520299151242 1.8661714760832582 65.0
    vertex 0.4239575333710237 0.8604424190945852 68.0
    vertex 0.7477884129691178 0.6710516483533322 68.0
  endloop
endfacet
facet normal 0.2363314805527415 0.8626398039157182 0.44721359549995887
  outer loop
    vertex 0.0621429849828315 0.9595662567820671 68.0
    vertex 1.0107579495100592 2.2549542071018807 65.0
    vertex 0.26802245245244594 2.4584363312537265 65.0
  endloop
endfacet
facet normal 0.2363314805527415 0.8626398039157182 0.44721359549995887
  outer loop
    vertex 1.0107579495100592 2.2549542071018807 65.0
    vertex 0.0621429849828315 0.9595662567820671 68.0
    vertex 0.4239575333710237 0.8604424190945852 68.0
  endloop
endfacet
facet normal 0.0 0.0 1.0
  outer loop
    vertex -0.29663783414316974 -0.5306651319434249 80.0
    vertex -0.3080405851473386 -0.4401361822369036 80.0
    vertex -0.308298390811668 -0.4861512574146961 80.0
  endloop
endfacet
facet normal 0.0 0.0 1.0
  outer loop
    vertex -0.3080405851473386 -0.4401361822369036 80.0
    vertex -0.29663783414316974 -0.5306651319434249 80.0
    vertex -0.2958819861801618 -0.3957557577399032 80.0
  endloop
endfacet
facet normal 0.0 0.0 1.0
  outer loop
    vertex -0.2958819861801618 -0.3957557577399032 80.0
    vertex -0.29663783414316974 -0.5306651319434249 80.0
    vertex -0.2738535628088224 -0.5706442588366081 80.0
  endloop
endfacet
facet normal 0.0 0.0 1.0
  outer loop
    vertex -0.2958819861801618 -0.3957557577399032 80.0
    vertex -0.2738535628088224 -0.5706442588366081 80.0
    vertex -0.272651182336717 -0.3560344365110501 80.0
  endloop
endfacet
facet normal 0.0 0.0 1.0
  outer loop
    vertex -0.272651182336717 -0.3560344365110501 80.0
    vertex -0.2738535628088224 -0.5706442588366081 80.0
    vertex -0.24149828724727035 -0.6033641266651113 80.0
  endloop
endfacet
facet normal 0.0 0.0 1.0
  outer loop
    vertex -0.272651182336717 -0.3560344365110501 80.0
    vertex -0.24149828724727035 -0.6033641266651113 80.0
    vertex -0.2399313145082145 -0.3236791609494988 80.0
  endloop
endfacet
facet normal 0.0 0.0 1.0
  outer loop
    vertex -0.2399313145082145 -0.3236791609494988 80.0
    vertex -0.24149828724727035 -0.6033641266651113 80.0
    vertex -0.201776966018418 -0.6265949305085551 80.0
  endloop
endfacet
facet normal 0.0 0.0 1.0
  outer loop
    vertex -0.2399313145082145 -0.3236791609494988 80.0
    vertex -0.201776966018418 -0.6265949305085551 80.0
    vertex -0.19995218761502923 -0.3008948896151507 80.0
  endloop
endfacet
facet normal 0.0 0.0 1.0
  outer loop
    vertex -0.19995218761502923 -0.3008948896151507 80.0
    vertex -0.201776966018418 -0.6265949305085551 80.0
    vertex -0.15739654152141758 -0.6387535294757323 80.0
  endloop
endfacet
facet normal 0.0 0.0 1.0
  outer loop
    vertex -0.19995218761502923 -0.3008948896151507 80.0
    vertex -0.15739654152141758 -0.6387535294757323 80.0
    vertex -0.15543831308630357 -0.2892343329466531 80.0
  endloop
endfacet
facet normal 0.0 0.0 1.0
  outer loop
    vertex -0.15543831308630357 -0.2892343329466531 80.0
    vertex -0.15739654152141758 -0.6387535294757323 80.0
    vertex -0.11138146634362256 -0.6390113351400616 80.0
  endloop
endfacet
facet normal 0.0 0.0 1.0
  outer loop
    vertex -0.15543831308630357 -0.2892343329466531 80.0
    vertex -0.11138146634362256 -0.6390113351400616 80.0
    vertex -0.1094232379085089 -0.2894921386109829 80.0
  endloop
endfacet
facet normal 0.0 0.0 1.0
  outer loop
    vertex -0.1094232379085089 -0.2894921386109829 80.0
    vertex -0.11138146634362256 -0.6390113351400616 80.0
    vertex -0.0668675918148969 -0.6273507784715647 80.0
  endloop
endfacet
facet normal 0.0 0.0 1.0
  outer loop
    vertex -0.1094232379085089 -0.2894921386109829 80.0
    vertex -0.0668675918148969 -0.6273507784715647 80.0
    vertex -0.06504281341150848 -0.3016507375781597 80.0
  endloop
endfacet
facet normal 0.0 0.0 1.0
  outer loop
    vertex -0.06504281341150848 -0.3016507375781597 80.0
    vertex -0.0668675918148969 -0.6273507784715647 80.0
    vertex -0.026888464921711985 -0.604566507137217 80.0
  endloop
endfacet
facet normal 0.0 0.0 1.0
  outer loop
    vertex -0.06504281341150848 -0.3016507375781597 80.0
    vertex -0.026888464921711985 -0.604566507137217 80.0
    vertex -0.025321492182655073 -0.3248815414216038 80.0
  endloop
endfacet
facet normal 0.0 0.0 1.0
  outer loop
    vertex -0.025321492182655073 -0.3248815414216038 80.0
    vertex -0.026888464921711985 -0.604566507137217 80.0
    vertex 0.005831402906791568 -0.5722112315756643 80.0
  endloop
endfacet
facet normal 0.0 0.0 1.0
  outer loop
    vertex -0.025321492182655073 -0.3248815414216038 80.0
    vertex 0.005831402906791568 -0.5722112315756643 80.0
    vertex 0.007033783378896241 -0.3576014092501063 80.0
  endloop
endfacet
facet normal 0.0 0.0 1.0
  outer loop
    vertex 0.007033783378896241 -0.3576014092501063 80.0
    vertex 0.005831402906791568 -0.5722112315756643 80.0
    vertex 0.029062206750236387 -0.5324899103468106 80.0
  endloop
endfacet
facet normal 0.0 0.0 1.0
  outer loop
    vertex 0.007033783378896241 -0.3576014092501063 80.0
    vertex 0.029062206750236387 -0.5324899103468106 80.0
    vertex 0.02981805471324538 -0.397580536143293 80.0
  endloop
endfacet
facet normal 0.0 0.0 1.0
  outer loop
    vertex 0.02981805471324538 -0.397580536143293 80.0
    vertex 0.029062206750236387 -0.5324899103468106 80.0
    vertex 0.04122080571741249 -0.488109485849814 80.0
  endloop
endfacet
facet normal 0.0 0.0 1.0
  outer loop
    vertex 0.02981805471324538 -0.397580536143293 80.0
    vertex 0.04122080571741249 -0.488109485849814 80.0
    vertex 0.041478611381742234 -0.442094410672019 80.0
  endloop
endfacet
facet normal 0.005171581782661209 0.9230624359484166 0.38461538461538536
  outer loop
    vertex -0.15543831308630357 -0.2892343329466531 80.0
    vertex 0.0621429849828315 0.9595662567820671 77.0
    vertex -0.3129981686496059 0.9616680356872594 77.0
  endloop
endfacet
facet normal 0.005171581782661209 0.9230624359484166 0.38461538461538536
  outer loop
    vertex 0.0621429849828315 0.9595662567820671 77.0
    vertex -0.15543831308630357 -0.2892343329466531 80.0
    vertex -0.1094232379085089 -0.2894921386109829 80.0
  endloop
endfacet
facet normal -0.23391077383553766 0.8929483500185323 0.3846153846153854
  outer loop
    vertex -0.19995218761502923 -0.3008948896151507 80.0
    vertex -0.3129981686496059 0.9616680356872594 77.0
    vertex -0.6759006778563109 0.8666045230511285 77.0
  endloop
endfacet
facet normal -0.23391077383553766 0.8929483500185323 0.3846153846153854
  outer loop
    vertex -0.3129981686496059 0.9616680356872594 77.0
    vertex -0.19995218761502923 -0.3008948896151507 80.0
    vertex -0.15543831308630357 -0.2892343329466531 80.0
  endloop
endfacet
facet normal -0.45705249677267346 0.8019813097018065 0.38461538461538514
  outer loop
    vertex -0.2399313145082145 -0.3236791609494988 80.0
    vertex -0.6759006778563109 0.8666045230511285 77.0
    vertex -1.0018333363595957 0.6808541401599459 77.0
  endloop
endfacet
facet normal -0.45705249677267346 0.8019813097018065 0.38461538461538514
  outer loop
    vertex -0.6759006778563109 0.8666045230511285 77.0
    vertex -0.2399313145082145 -0.3236791609494988 80.0
    vertex -0.19995218761502923 -0.3008948896151507 80.0
  endloop
endfacet
facet normal -0.6490468473697161 0.6563605684656811 0.38461538461538497
  outer loop
    vertex -0.272651182336717 -0.3560344365110501 80.0
    vertex -1.0018333363595957 0.6808541401599459 77.0
    vertex -1.268584372111656 0.41707546864071854 77.0
  endloop
endfacet
facet normal -0.6490468473697161 0.6563605684656811 0.38461538461538497
  outer loop
    vertex -1.0018333363595957 0.6808541401599459 77.0
    vertex -0.272651182336717 -0.3560344365110501 80.0
    vertex -0.2399313145082145 -0.3236791609494988 80.0
  endloop
endfacet
facet normal -0.7968097279191451 0.4660099391757404 0.3846153846153852
  outer loop
    vertex -0.272651182336717 -0.3560344365110501 80.0
    vertex -1.4579751428529077 0.09324458904262657 77.0
    vertex -0.2958819861801618 -0.3957557577399032 80.0
  endloop
endfacet
facet normal -0.7968097279191451 0.4660099391757404 0.3846153846153852
  outer loop
    vertex -1.4579751428529077 0.09324458904262657 77.0
    vertex -0.272651182336717 -0.3560344365110501 80.0
    vertex -1.268584372111656 0.41707546864071854 77.0
  endloop
endfacet
facet normal -0.8902713423012164 0.24390150264881477 0.3846153846153852
  outer loop
    vertex -0.2958819861801618 -0.3957557577399032 80.0
    vertex -1.5570989805403883 -0.2685699593455621 77.0
    vertex -0.3080405851473386 -0.4401361822369036 80.0
  endloop
endfacet
facet normal -0.8902713423012164 0.24390150264881477 0.3846153846153852
  outer loop
    vertex -1.5570989805403883 -0.2685699593455621 77.0
    vertex -0.2958819861801618 -0.3957557577399032 80.0
    vertex -1.4579751428529077 0.09324458904262657 77.0
  endloop
endfacet
facet normal -0.9230624359484166 0.005171581782660756 0.3846153846153853
  outer loop
    vertex -0.308298390811668 -0.4861512574146961 80.0
    vertex -1.5570989805403883 -0.2685699593455621 77.0
    vertex -1.5592007594455806 -0.6437111129779991 77.0
  endloop
endfacet
facet normal -0.9230624359484166 0.005171581782660756 0.3846153846153853
  outer loop
    vertex -1.5570989805403883 -0.2685699593455621 77.0
    vertex -0.308298390811668 -0.4861512574146961 80.0
    vertex -0.3080405851473386 -0.4401361822369036 80.0
  endloop
endfacet
facet normal -0.8929483500185321 -0.23391077383553854 0.38461538461538536
  outer loop
    vertex -0.29663783414316974 -0.5306651319434249 80.0
    vertex -1.5592007594455806 -0.6437111129779991 77.0
    vertex -1.46413724680945 -1.006613622184703 77.0
  endloop
endfacet
facet normal -0.8929483500185321 -0.23391077383553854 0.38461538461538536
  outer loop
    vertex -1.5592007594455806 -0.6437111129779991 77.0
    vertex -0.29663783414316974 -0.5306651319434249 80.0
    vertex -0.308298390811668 -0.4861512574146961 80.0
  endloop
endfacet
facet normal -0.801981309701806 -0.4570524967726737 0.3846153846153858
  outer loop
    vertex -0.2738535628088224 -0.5706442588366081 80.0
    vertex -1.46413724680945 -1.006613622184703 77.0
    vertex -1.2783868639182678 -1.3325462806879895 77.0
  endloop
endfacet
facet normal -0.801981309701806 -0.4570524967726737 0.3846153846153858
  outer loop
    vertex -1.46413724680945 -1.006613622184703 77.0
    vertex -0.2738535628088224 -0.5706442588366081 80.0
    vertex -0.29663783414316974 -0.5306651319434249 80.0
  endloop
endfacet
facet normal -0.6563605684656769 -0.6490468473697203 0.3846153846153851
  outer loop
    vertex -0.24149828724727035 -0.6033641266651113 80.0
    vertex -1.2783868639182678 -1.3325462806879895 77.0
    vertex -1.0146081923990407 -1.599297316440049 77.0
  endloop
endfacet
facet normal -0.6563605684656769 -0.6490468473697203 0.3846153846153851
  outer loop
    vertex -1.2783868639182678 -1.3325462806879895 77.0
    vertex -0.24149828724727035 -0.6033641266651113 80.0
    vertex -0.2738535628088224 -0.5706442588366081 80.0
  endloop
endfacet
facet normal -0.46600993917573935 -0.7968097279191458 0.3846153846153851
  outer loop
    vertex -0.201776966018418 -0.6265949305085551 80.0
    vertex -1.0146081923990407 -1.599297316440049 77.0
    vertex -0.6907773128009477 -1.7886880871813013 77.0
  endloop
endfacet
facet normal -0.46600993917573935 -0.7968097279191458 0.3846153846153851
  outer loop
    vertex -1.0146081923990407 -1.599297316440049 77.0
    vertex -0.201776966018418 -0.6265949305085551 80.0
    vertex -0.24149828724727035 -0.6033641266651113 80.0
  endloop
endfacet
facet normal -0.24390150264881477 -0.8902713423012163 0.3846153846153853
  outer loop
    vertex -0.15739654152141758 -0.6387535294757323 80.0
    vertex -0.6907773128009477 -1.7886880871813013 77.0
    vertex -0.32896276441275907 -1.887811924868782 77.0
  endloop
endfacet
facet normal -0.24390150264881477 -0.8902713423012163 0.3846153846153853
  outer loop
    vertex -0.6907773128009477 -1.7886880871813013 77.0
    vertex -0.15739654152141758 -0.6387535294757323 80.0
    vertex -0.201776966018418 -0.6265949305085551 80.0
  endloop
endfacet
facet normal -0.005171581782661139 -0.9230624359484166 0.3846153846153853
  outer loop
    vertex -0.11138146634362256 -0.6390113351400616 80.0
    vertex -0.32896276441275907 -1.887811924868782 77.0
    vertex 0.046178389219678685 -1.8899137037739744 77.0
  endloop
endfacet
facet normal -0.005171581782661139 -0.9230624359484166 0.3846153846153853
  outer loop
    vertex -0.32896276441275907 -1.887811924868782 77.0
    vertex -0.11138146634362256 -0.6390113351400616 80.0
    vertex -0.15739654152141758 -0.6387535294757323 80.0
  endloop
endfacet
facet normal 0.2339107738355371 -0.8929483500185325 0.38461538461538514
  outer loop
    vertex -0.0668675918148969 -0.6273507784715647 80.0
    vertex 0.046178389219678685 -1.8899137037739744 77.0
    vertex 0.409080898426383 -1.7948501911378443 77.0
  endloop
endfacet
facet normal 0.2339107738355371 -0.8929483500185325 0.38461538461538514
  outer loop
    vertex 0.046178389219678685 -1.8899137037739744 77.0
    vertex -0.0668675918148969 -0.6273507784715647 80.0
    vertex -0.11138146634362256 -0.6390113351400616 80.0
  endloop
endfacet
facet normal 0.45705249677267445 -0.8019813097018059 0.3846153846153851
  outer loop
    vertex -0.026888464921711985 -0.604566507137217 80.0
    vertex 0.409080898426383 -1.7948501911378443 77.0
    vertex 0.735013556929671 -1.60909980824666 77.0
  endloop
endfacet
facet normal 0.45705249677267445 -0.8019813097018059 0.3846153846153851
  outer loop
    vertex 0.409080898426383 -1.7948501911378443 77.0
    vertex -0.026888464921711985 -0.604566507137217 80.0
    vertex -0.0668675918148969 -0.6273507784715647 80.0
  endloop
endfacet
facet normal 0.6490468473697145 -0.6563605684656826 0.38461538461538497
  outer loop
    vertex 0.005831402906791568 -0.5722112315756643 80.0
    vertex 0.735013556929671 -1.60909980824666 77.0
    vertex 1.0017645926817278 -1.345321136727437 77.0
  endloop
endfacet
facet normal 0.6490468473697145 -0.6563605684656826 0.38461538461538497
  outer loop
    vertex 0.735013556929671 -1.60909980824666 77.0
    vertex 0.005831402906791568 -0.5722112315756643 80.0
    vertex -0.026888464921711985 -0.604566507137217 80.0
  endloop
endfacet
facet normal 0.7968097279191446 -0.46600993917574124 0.38461538461538514
  outer loop
    vertex 1.191155363422981 -1.0214902571293427 77.0
    vertex 0.005831402906791568 -0.5722112315756643 80.0
    vertex 1.0017645926817278 -1.345321136727437 77.0
  endloop
endfacet
facet normal 0.7968097279191446 -0.46600993917574124 0.38461538461538514
  outer loop
    vertex 0.005831402906791568 -0.5722112315756643 80.0
    vertex 1.191155363422981 -1.0214902571293427 77.0
    vertex 0.029062206750236387 -0.5324899103468106 80.0
  endloop
endfacet
facet normal 0.8902713423012157 -0.24390150264881702 0.38461538461538525
  outer loop
    vertex 1.290279201110462 -0.6596757087411569 77.0
    vertex 0.029062206750236387 -0.5324899103468106 80.0
    vertex 1.191155363422981 -1.0214902571293427 77.0
  endloop
endfacet
facet normal 0.8902713423012157 -0.24390150264881702 0.38461538461538525
  outer loop
    vertex 0.029062206750236387 -0.5324899103468106 80.0
    vertex 1.290279201110462 -0.6596757087411569 77.0
    vertex 0.04122080571741249 -0.488109485849814 80.0
  endloop
endfacet
facet normal 0.9230624359484166 -0.005171581782661846 0.38461538461538525
  outer loop
    vertex 1.2923809800156552 -0.2845345551087178 77.0
    vertex 0.04122080571741249 -0.488109485849814 80.0
    vertex 1.290279201110462 -0.6596757087411569 77.0
  endloop
endfacet
facet normal 0.9230624359484166 -0.005171581782661846 0.38461538461538525
  outer loop
    vertex 0.04122080571741249 -0.488109485849814 80.0
    vertex 1.2923809800156552 -0.2845345551087178 77.0
    vertex 0.041478611381742234 -0.442094410672019 80.0
  endloop
endfacet
facet normal 0.892948350018533 0.23391077383553527 0.3846153846153853
  outer loop
    vertex 1.2923809800156552 -0.2845345551087178 77.0
    vertex 0.02981805471324538 -0.397580536143293 80.0
    vertex 0.041478611381742234 -0.442094410672019 80.0
  endloop
endfacet
facet normal 0.892948350018533 0.23391077383553527 0.3846153846153853
  outer loop
    vertex 0.02981805471324538 -0.397580536143293 80.0
    vertex 1.2923809800156552 -0.2845345551087178 77.0
    vertex 1.1973174673795257 0.07836795409798515 77.0
  endloop
endfacet
facet normal 0.8019813097018065 0.457052496772673 0.3846153846153853
  outer loop
    vertex 1.1973174673795257 0.07836795409798515 77.0
    vertex 0.007033783378896241 -0.3576014092501063 80.0
    vertex 0.02981805471324538 -0.397580536143293 80.0
  endloop
endfacet
facet normal 0.8019813097018065 0.457052496772673 0.3846153846153853
  outer loop
    vertex 0.007033783378896241 -0.3576014092501063 80.0
    vertex 1.1973174673795257 0.07836795409798515 77.0
    vertex 1.0115670844883409 0.4043006126012752 77.0
  endloop
endfacet
facet normal 0.6563605684656795 0.649046847369717 0.3846153846153862
  outer loop
    vertex 1.0115670844883409 0.4043006126012752 77.0
    vertex -0.025321492182655073 -0.3248815414216038 80.0
    vertex 0.007033783378896241 -0.3576014092501063 80.0
  endloop
endfacet
facet normal 0.6563605684656795 0.649046847369717 0.3846153846153862
  outer loop
    vertex -0.025321492182655073 -0.3248815414216038 80.0
    vertex 1.0115670844883409 0.4043006126012752 77.0
    vertex 0.7477884129691178 0.6710516483533322 77.0
  endloop
endfacet
facet normal 0.46600993917574257 0.7968097279191441 0.38461538461538486
  outer loop
    vertex -0.06504281341150848 -0.3016507375781597 80.0
    vertex 0.7477884129691178 0.6710516483533322 77.0
    vertex 0.4239575333710237 0.8604424190945852 77.0
  endloop
endfacet
facet normal 0.46600993917574257 0.7968097279191441 0.38461538461538486
  outer loop
    vertex 0.7477884129691178 0.6710516483533322 77.0
    vertex -0.06504281341150848 -0.3016507375781597 80.0
    vertex -0.025321492182655073 -0.3248815414216038 80.0
  endloop
endfacet
facet normal 0.24390150264881477 0.8902713423012164 0.38461538461538514
  outer loop
    vertex -0.1094232379085089 -0.2894921386109829 80.0
    vertex 0.4239575333710237 0.8604424190945852 77.0
    vertex 0.0621429849828315 0.9595662567820671 77.0
  endloop
endfacet
facet normal 0.24390150264881477 0.8902713423012164 0.38461538461538514
  outer loop
    vertex 0.4239575333710237 0.8604424190945852 77.0
    vertex -0.1094232379085089 -0.2894921386109829 80.0
    vertex -0.06504281341150848 -0.3016507375781597 80.0
  endloop
endfacet
endsolid Hruska Ear Bar v1 12-21-2015
